<?xml version="1.0" encoding="utf-8"?>
<!-- Generator: Adobe Illustrator 25.3.1, SVG Export Plug-In . SVG Version: 6.00 Build 0)  -->
<svg version="1.1" id="图层_1" xmlns="http://www.w3.org/2000/svg" xmlns:xlink="http://www.w3.org/1999/xlink" x="0px" y="0px"
	 viewBox="0 0 462 420" style="enable-background:new 0 0 462 420;" xml:space="preserve">
<style type="text/css">
	.st0{clip-path:url(#SVGID_2_);}
	.st1{fill:none;stroke:#C0C0C0;stroke-linecap:round;stroke-linejoin:round;stroke-miterlimit:10;}
	
		.st2{fill:none;stroke:#D32F2F;stroke-width:4;stroke-linecap:round;stroke-linejoin:round;stroke-miterlimit:10;stroke-opacity:0.698;}
	
		.st3{fill:none;stroke:#2E7D32;stroke-width:4;stroke-linecap:round;stroke-linejoin:round;stroke-miterlimit:10;stroke-opacity:0.698;}
	.st4{fill:#2E7D32;}
	.st5{fill:none;stroke:#000000;stroke-linecap:round;stroke-linejoin:round;stroke-miterlimit:10;}
	.st6{fill:#1565C0;}
</style>
<g>
	<defs>
		<rect id="SVGID_1_" width="462" height="420"/>
	</defs>
	<clipPath id="SVGID_2_">
		<use xlink:href="#SVGID_1_"  style="overflow:visible;"/>
	</clipPath>
	<g transform="scale(1,1)" class="st0">
		<g>
			<path class="st1" d="M2.5,0.5v420 M2.5,0.5v420 M56.5,0.5v420 M110.5,0.5v420 M164.5,0.5v420 M219.5,0.5v420 M273.5,0.5v420
				 M327.5,0.5v420 M381.5,0.5v420 M435.5,0.5v420 M0,0"/>
			<path class="st1" d="M0.5,39.5h462 M0.5,39.5h462 M0.5,93.5h462 M0.5,147.5h462 M0.5,201.5h462 M0.5,255.5h462 M0.5,309.5h462
				 M0.5,363.5h462 M0.5,417.5h462 M0,0"/>
			<path class="st2" d="M119.3,425L467,255.8"/>
			<path class="st3" d="M56.9,228.4l54,54"/>
			<path class="st3" d="M111,282.5H219"/>
			<path class="st3" d="M219,282.5l135.1-27"/>
			<path class="st3" d="M354.1,255.4l27-108.1"/>
			<path class="st4" d="M118,282.5c0,3.9-3.1,7-7,7c-3.9,0-7-3.1-7-7c0-3.9,3.1-7,7-7C114.8,275.5,118,278.6,118,282.5z"/>
			<path class="st5" d="M118,282.5c0,3.9-3.1,7-7,7c-3.9,0-7-3.1-7-7c0-3.9,3.1-7,7-7C114.8,275.5,118,278.6,118,282.5z"/>
			<path class="st4" d="M63.9,228.4c0,3.9-3.1,7-7,7s-7-3.1-7-7c0-3.9,3.1-7,7-7S63.9,224.6,63.9,228.4z"/>
			<path class="st5" d="M63.9,228.4c0,3.9-3.1,7-7,7s-7-3.1-7-7c0-3.9,3.1-7,7-7S63.9,224.6,63.9,228.4z"/>
			<path class="st6" d="M145,201.4c0,3.9-3.1,7-7,7c-3.9,0-7-3.1-7-7s3.1-7,7-7C141.8,194.4,145,197.5,145,201.4z"/>
			<path class="st5" d="M145,201.4c0,3.9-3.1,7-7,7c-3.9,0-7-3.1-7-7s3.1-7,7-7C141.8,194.4,145,197.5,145,201.4z"/>
			<path class="st6" d="M172,174.4c0,3.9-3.1,7-7,7s-7-3.1-7-7c0-3.9,3.1-7,7-7S172,170.5,172,174.4z"/>
			<path class="st5" d="M172,174.4c0,3.9-3.1,7-7,7s-7-3.1-7-7c0-3.9,3.1-7,7-7S172,170.5,172,174.4z"/>
			<path class="st6" d="M199,228.4c0,3.9-3.1,7-7,7c-3.9,0-7-3.1-7-7c0-3.9,3.1-7,7-7C195.9,221.4,199,224.6,199,228.4z"/>
			<path class="st5" d="M199,228.4c0,3.9-3.1,7-7,7c-3.9,0-7-3.1-7-7c0-3.9,3.1-7,7-7C195.9,221.4,199,224.6,199,228.4z"/>
			<path class="st6" d="M90.9,93.3c0,3.9-3.1,7-7,7c-3.9,0-7-3.1-7-7c0-3.9,3.1-7,7-7C87.8,86.3,90.9,89.5,90.9,93.3z"/>
			<path class="st5" d="M90.9,93.3c0,3.9-3.1,7-7,7c-3.9,0-7-3.1-7-7c0-3.9,3.1-7,7-7C87.8,86.3,90.9,89.5,90.9,93.3z"/>
			<path class="st6" d="M307.1,228.4c0,3.9-3.1,7-7,7c-3.9,0-7-3.1-7-7c0-3.9,3.1-7,7-7C303.9,221.4,307.1,224.6,307.1,228.4z"/>
			<path class="st5" d="M307.1,228.4c0,3.9-3.1,7-7,7c-3.9,0-7-3.1-7-7c0-3.9,3.1-7,7-7C303.9,221.4,307.1,224.6,307.1,228.4z"/>
			<path class="st4" d="M226,282.5c0,3.9-3.1,7-7,7s-7-3.1-7-7c0-3.9,3.1-7,7-7S226,278.6,226,282.5z"/>
			<path class="st5" d="M226,282.5c0,3.9-3.1,7-7,7s-7-3.1-7-7c0-3.9,3.1-7,7-7S226,278.6,226,282.5z"/>
			<path class="st4" d="M361.1,255.4c0,3.9-3.1,7-7,7s-7-3.1-7-7c0-3.9,3.1-7,7-7S361.1,251.6,361.1,255.4z"/>
			<path class="st5" d="M361.1,255.4c0,3.9-3.1,7-7,7s-7-3.1-7-7c0-3.9,3.1-7,7-7S361.1,251.6,361.1,255.4z"/>
			<path class="st4" d="M388.1,147.4c0,3.9-3.1,7-7,7c-3.9,0-7-3.1-7-7c0-3.9,3.1-7,7-7C385,140.4,388.1,143.5,388.1,147.4z"/>
			<path class="st5" d="M388.1,147.4c0,3.9-3.1,7-7,7c-3.9,0-7-3.1-7-7c0-3.9,3.1-7,7-7C385,140.4,388.1,143.5,388.1,147.4z"/>
			<path class="st6" d="M334.1,93.3c0,3.9-3.1,7-7,7s-7-3.1-7-7c0-3.9,3.1-7,7-7S334.1,89.5,334.1,93.3z"/>
			<path class="st5" d="M334.1,93.3c0,3.9-3.1,7-7,7s-7-3.1-7-7c0-3.9,3.1-7,7-7S334.1,89.5,334.1,93.3z"/>
			<path class="st6" d="M280.1,147.4c0,3.9-3.1,7-7,7s-7-3.1-7-7c0-3.9,3.1-7,7-7S280.1,143.5,280.1,147.4z"/>
			<path class="st5" d="M280.1,147.4c0,3.9-3.1,7-7,7s-7-3.1-7-7c0-3.9,3.1-7,7-7S280.1,143.5,280.1,147.4z"/>
			<path class="st6" d="M253,39.3c0,3.9-3.1,7-7,7s-7-3.1-7-7s3.1-7,7-7S253,35.4,253,39.3z"/>
			<path class="st5" d="M253,39.3c0,3.9-3.1,7-7,7s-7-3.1-7-7s3.1-7,7-7S253,35.4,253,39.3z"/>
		</g>
	</g>
</g>
</svg>
